<?xml version="1.0" encoding="UTF-8"?>
<svg width="16px" height="16px" viewBox="0 0 16 16" version="1.1" xmlns="http://www.w3.org/2000/svg" xmlns:xlink="http://www.w3.org/1999/xlink">
    <!-- Generator: Sketch 56.3 (81716) - https://sketch.com -->
    <title>icon_video_watch</title>
    <desc>Created with Sketch.</desc>
    <g id="底层页_视频" stroke="none" stroke-width="1" fill="none" fill-rule="evenodd">
        <g id="底层页-视频" transform="translate(-264.000000, -222.000000)" fill-rule="nonzero">
            <g id="分组-2" transform="translate(0.000000, 44.000000)">
                <g id="Tag/Video" transform="translate(258.000000, 177.000000)">
                    <g id="视频icon">
                        <g id="icon/16px/Watch" transform="translate(6.000000, 1.000000)">
                            <g id="icon">
                                <rect id="icon_bg" fill="#D8D8D8" opacity="0" x="0" y="0" width="16" height="16"></rect>
                                <path d="M14.085479,11.6014203 C14.4073349,12.1807608 14.1986023,12.9113247 13.6192618,13.2331806 C13.4409922,13.3322192 13.2404234,13.3841918 13.0364903,13.3841918 L4.2,13.3841918 C3.5372583,13.3841918 3,12.8469335 3,12.1841918 C3,11.9978977 3.04337411,11.814162 3.12668737,11.6475355 L7.31239331,3.27612364 C7.60878041,2.68334945 8.32958805,2.44308023 8.92236225,2.73946733 C9.13866774,2.84762008 9.31724829,3.01860496 9.43469467,3.23000844 L14.085479,11.6014203 Z M8.56053739,3.71565137 C8.540963,3.68041746 8.51119957,3.65191998 8.47514866,3.63389452 C8.37635296,3.58449667 8.25621835,3.62454154 8.2068205,3.72333724 L4.02111456,12.0947491 C4.00722902,12.1225202 4,12.1531428 4,12.1841918 C4,12.2946488 4.08954305,12.3841918 4.2,12.3841918 L13.0364903,12.3841918 C13.0704792,12.3841918 13.1039073,12.3755297 13.1336189,12.3590233 C13.2301756,12.3053807 13.2649644,12.18362 13.2113218,12.0870632 L8.56053739,3.71565137 Z" id="三角形" fill="#FFFFFF" transform="translate(8.618354, 7.998354) rotate(-270.000000) translate(-8.618354, -7.998354) "></path>
                            </g>
                        </g>
                    </g>
                </g>
            </g>
        </g>
    </g>
</svg>